#!OML:ASF H:\LiuWeirdWalks\Patient Classification 1\Patient 1\Session 1\male.ASF
:FULLY-SPECIFIED
:DEGREES
1838
root 1.87663 17.857 -19.7421 165.9 -18.9909 189.528
lowerback 11.5061 3.20325 7.93111
upperback -0.610627 5.36396 1.47015
thorax -6.52201 2.33467 -3.76675
lowerneck -11.8945 -1.00244 2.00751
upperneck 13.4796 -0.954899 -6.04274
head 5.99719 -0.901265 -2.33652
rclavicle -2.04251e-014 1.59028e-015
rhumerus -23.5298 -9.53063 -66.6783
rradius 28.0731
rwrist -8.40895
rhand -21.6541 -4.97546
rfingers 7.12502
rthumb 4.74277 -34.9024
lclavicle -2.04251e-014 1.59028e-015
lhumerus -39.6835 8.17838 76.6144
lradius 46.6221
lwrist 17.4343
lhand -18.045 -2.62618
lfingers 7.12502
lthumb 8.22692 27.1936
rfemur 5.48198 -12.1272 33.0177
rtibia 22.7617
rfoot -8.5248 -24.3672
rtoes 0.541502
lfemur -45.4041 3.14111 -5.08607
ltibia 34.2206
lfoot 16.9162 -0.641551
ltoes -9.10057
1839
root 1.88483 17.8995 -19.7934 166.039 -18.9025 189.39
lowerback 11.5019 3.39204 8.16835
upperback -0.627086 5.63781 1.18087
thorax -6.45386 2.46315 -4.24247
lowerneck -11.9295 -1.10529 2.00375
upperneck 13.5311 -1.11583 -5.85341
head 6.01344 -0.963326 -2.28995
rclavicle 4.18442e-014 -7.95139e-016
rhumerus -23.3416 -9.79085 -66.9426
rradius 28.3294
rwrist -8.54621
rhand -21.6422 -5.04211
rfingers 7.12502
rthumb 4.75429 -34.9688
lclavicle 4.18442e-014 -7.95139e-016
lhumerus -39.7127 8.69671 76.0653
lradius 46.1846
lwrist 17.1004
lhand -18.2498 -2.24724
lfingers 7.12502
lthumb 8.02922 27.5802
rfemur 6.19873 -11.8945 33.0555
rtibia 21.4246
rfoot -7.89013 -24.5867
rtoes 0.648616
lfemur -46.3005 2.03552 -4.54802
ltibia 32.082
lfoot 17.1615 1.05399
ltoes -8.07031
1840
root 1.88958 17.9288 -19.8469 166.17 -18.8202 189.241
lowerback 11.4883 3.55303 8.32498
upperback -0.622676 5.86205 0.934186
thorax -6.37168 2.57157 -4.61925
lowerneck -11.9687 -1.18037 1.99704
upperneck 13.5371 -1.23263 -5.7168
head 6.01796 -1.00793 -2.25542
rclavicle 5.66536e-014 -8.74653e-015
rhumerus -23.0934 -9.92479 -67.2369
rradius 28.5953
rwrist -8.70954
rhand -21.6189 -5.08827
rfingers 7.12502
rthumb 4.77672 -35.0144
lclavicle 5.66536e-014 -8.74653e-015
lhumerus -39.8031 9.29998 75.53
lradius 45.7534
lwrist 16.8472
lhand -18.501 -1.86308
lfingers 7.12502
lthumb 7.78684 27.9735
rfemur 6.95293 -11.6396 33.0761
rtibia 20.0626
rfoot -7.24722 -24.8139
rtoes 0.794563
lfemur -47.3313 0.76737 -3.83038
ltibia 30.3683
lfoot 16.8024 3.025
ltoes -7.14305
1841
root 1.89296 17.9531 -19.9004 166.267 -18.723 189.129
lowerback 11.5168 3.67355 8.39345
upperback -0.629816 6.02893 0.777672
thorax -6.34917 2.6517 -4.84814
lowerneck -12.0288 -1.20269 1.97165
upperneck 13.5885 -1.26666 -5.64146
head 6.04379 -1.02036 -2.23159
rclavicle 1.37957e-013 -1.03368e-014
rhumerus -22.8104 -9.87296 -67.5424
rradius 28.8602
rwrist -8.89053
rhand -21.5978 -5.08644
rfingers 7.12502
rthumb 4.79711 -35.0121
lclavicle 1.37957e-013 -1.03368e-014
lhumerus -40.0366 10.0376 75.0058
lradius 45.3295
lwrist 16.6544
lhand -18.7968 -1.4602
lfingers 7.12502
lthumb 7.50132 28.3868
rfemur 7.72814 -11.3685 33.1333
rtibia 18.7147
rfoot -6.61442 -25.0367
rtoes 0.937141
lfemur -48.3653 -0.498405 -2.98424
ltibia 29.0498
lfoot 15.4567 4.86647
ltoes -6.39439
1842
root 1.89553 17.9723 -19.9531 166.33 -18.6164 189.097
lowerback 11.5898 3.73129 8.3149
upperback -0.661608 6.1057 0.784035
thorax -6.42261 2.68743 -4.81714
lowerneck -12.0337 -1.14978 1.90567
upperneck 13.6442 -1.17851 -5.67771
head 6.06628 -0.986141 -2.22599
rclavicle 7.524e-014 -3.97569e-015
rhumerus -22.4776 -9.49237 -67.8234
rradius 29.1387
rwrist -9.07726
rhand -21.565 -5.04283
rfingers 7.12502
rthumb 4.82885 -34.9678
lclavicle 7.524e-014 -3.97569e-015
lhumerus -40.4976 10.9876 74.5207
lradius 44.9389
lwrist 16.4819
lhand -19.1184 -1.0649
lfingers 7.12502
lthumb 7.19084 28.7929
rfemur 8.41281 -11.084 33.2756
rtibia 17.5666
rfoot -6.09193 -25.2761
rtoes 1.04766
lfemur -49.4874 -1.61149 -2.08014
ltibia 28.146
lfoot 12.9234 6.11641
ltoes -4.66764
1843
root 1.89585 17.9843 -20.0051 166.383 -18.5361 189.11
lowerback 11.6972 3.71757 8.03098
upperback -0.722745 6.07282 0.960917
thorax -6.60142 2.67149 -4.48278
lowerneck -11.9746 -1.00241 1.84568
upperneck 13.69 -0.942691 -5.88502
head 6.07989 -0.89547 -2.26281
rclavicle -2.31584e-014 2.38542e-014
rhumerus -22.0935 -8.71491 -68.0624
rradius 29.4422
rwrist -9.3129
rhand -21.5225 -5.01545
rfingers 7.12502
rthumb 4.8698 -34.9395
lclavicle -2.31584e-014 2.38542e-014
lhumerus -41.164 12.2534 74.0625
lradius 44.5253
lwrist 16.2995
lhand -19.4638 -0.696098
lfingers 7.12502
lthumb 6.85742 29.1728
rfemur 9.01876 -10.848 33.4408
rtibia 16.5676
rfoot -5.65482 -25.482
rtoes 1.12126
lfemur -50.6003 -2.18479 -1.52522
ltibia 27.516
lfoot 9.65336 6.1686
ltoes 0.102898
1844
root 1.89444 17.9892 -20.0565 166.419 -18.4811 189.194
lowerback 11.8233 3.6483 7.64457
upperback -0.798846 5.9595 1.26312
thorax -6.83989 2.61808 -3.95015
lowerneck -11.868 -0.795759 1.7708
upperneck 13.6896 -0.613107 -6.19439
head 6.07502 -0.768668 -2.32082
rclavicle 1.04362e-013 -1.35174e-014
rhumerus -21.6838 -7.64468 -68.28
rradius 29.7722
rwrist -9.57879
rhand -21.4817 -4.96107
rfingers 7.12502
rthumb 4.9092 -34.8842
lclavicle 1.04362e-013 -1.35174e-014
lhumerus -41.9678 13.7164 73.6112
lradius 44.0807
lwrist 16.1256
lhand -19.8259 -0.301928
lfingers 7.12502
lthumb 6.50786 29.5781
rfemur 9.5319 -10.6513 33.661
rtibia 15.736
rfoot -5.31288 -25.6697
rtoes 1.16017
lfemur -51.6669 -1.90228 -1.60846
ltibia 27.0862
lfoot 6.5294 5.20292
ltoes 8.58401
1845
root 1.89158 17.9884 -20.108 166.422 -18.4679 189.336
lowerback 11.9588 3.54799 7.29198
upperback -0.867366 5.80915 1.59087
thorax -7.07664 2.54681 -3.40251
lowerneck -11.7575 -0.573751 1.72148
upperneck 13.6866 -0.2656 -6.52532
head 6.07022 -0.633922 -2.38858
rclavicle 5.01434e-014 -3.97569e-015
rhumerus -21.3086 -6.55997 -68.5047
rradius 30.162
rwrist -9.79548
rhand -21.3938 -4.89089
rfingers 7.12502
rthumb 4.9941 -34.812
lclavicle 5.01434e-014 -3.97569e-015
lhumerus -42.7984 15.1649 73.1415
lradius 43.5922
lwrist 15.9491
lhand -20.1537 0.0355865
lfingers 7.12502
lthumb 6.19143 29.9251
rfemur 9.98116 -10.5124 33.9139
rtibia 15.058
rfoot -5.07255 -25.8367
rtoes 1.19257
lfemur -52.6837 -0.686712 -2.52548
ltibia 26.8288
lfoot 4.12898 3.89852
ltoes 17.2453
1846
root 1.88752 17.9831 -20.1594 166.403 -18.4929 189.514
lowerback 12.0959 3.42733 6.9795
upperback -0.913878 5.63383 1.92068
thorax -7.28608 2.46438 -2.86785
lowerneck -11.6824 -0.347482 1.70432
upperneck 13.6571 0.0832727 -6.86921
head 6.06427 -0.497499 -2.46577
rclavicle 1.32192e-014 3.1408e-014
rhumerus -20.9407 -5.45061 -68.7467
rradius 30.5976
rwrist -10.0313
rhand -21.2961 -4.83754
rfingers 7.12502
rthumb 5.08849 -34.7564
lclavicle 1.32192e-014 3.1408e-014
lhumerus -43.5938 16.592 72.6574
lradius 43.049
lwrist 15.8109
lhand -20.4629 0.379205
lfingers 7.12502
lthumb 5.89289 30.2773
rfemur 10.2946 -10.4184 34.1779
rtibia 14.6706
rfoot -5.01019 -26.0053
rtoes 1.25278
lfemur -53.7502 1.06297 -4.03461
ltibia 26.8523
lfoot 2.10277 3.52851
ltoes 20.9042
1847
root 1.88379 17.975 -20.2115 166.314 -18.5215 189.768
lowerback 12.2463 3.34647 7.0132
upperback -0.913556 5.54893 2.09315
thorax -7.39381 2.41585 -2.70142
lowerneck -11.6677 -0.225 1.72123
upperneck 13.6212 0.267508 -7.05255
head 6.05947 -0.423619 -2.51129
rclavicle 8.07563e-014 3.97569e-016
rhumerus -20.6852 -4.77709 -69.0695
rradius 31.0943
rwrist -10.211
rhand -21.1748 -4.74903
rfingers 7.12502
rthumb 5.20559 -34.6651
lclavicle 8.07563e-014 3.97569e-016
lhumerus -44.1522 17.5914 72.1737
lradius 42.4456
lwrist 15.6591
lhand -20.7248 0.742017
lfingers 7.12502
lthumb 5.6401 30.647
rfemur 10.6317 -10.3326 34.5125
rtibia 14.3218
rfoot -4.99166 -26.1912
rtoes 1.33524
lfemur -54.8189 2.86713 -5.66638
ltibia 27.0715
lfoot 0.252917 4.70074
ltoes 17.9885
